<?xml version="1.0" standalone="no"?>
<!DOCTYPE svg PUBLIC "-//W3C//DTD SVG 20010904//EN"
 "http://www.w3.org/TR/2001/REC-SVG-20010904/DTD/svg10.dtd">
<svg version="1.0" xmlns="http://www.w3.org/2000/svg"
 width="736.000000pt" height="552.000000pt" viewBox="0 0 736.000000 552.000000"
 preserveAspectRatio="xMidYMid meet">

<g transform="translate(0.000000,552.000000) scale(0.100000,-0.100000)"
fill="#000000" stroke="none">
<path d="M2937 3494 c-4 -4 -7 -418 -7 -921 l0 -913 175 0 175 0 0 860 0 860
55 0 55 0 0 -860 0 -860 520 0 520 0 0 170 0 170 -345 0 -345 0 0 60 0 60 345
0 345 0 0 55 0 55 -405 0 -405 0 0 -170 0 -170 345 0 345 0 0 -60 0 -60 -400
0 -400 0 -2 863 -3 862 -170 0 -170 0 -3 -862 -2 -863 -55 0 -55 0 -2 863 -3
862 -50 3 c-28 2 -54 0 -58 -4z"/>
</g>
</svg>
